<?xml version="1.0" standalone="no"?>
<svg id="SvgjsSvg1001" width="600" height="600" xmlns="http://www.w3.org/2000/svg" version="1.1" xmlns:xlink="http://www.w3.org/1999/xlink" xmlns:svgjs="http://svgjs.com/svgjs" class="svg-paper" viewBox="0 0 600 600"><title id="SvgjsTitle1008">x=y|y=sqrt(x*x + y*y)|dTest=0.0|sd=0.1|sm=0.6|ts=0.05 | generated with FlowLines</title><rect id="SvgjsRect1009" width="600" height="600" fill="#00000000"/><g id="SvgjsG1010"><polyline id="SvgjsPolyline1011" points="52.18,597.99 24.08,559.09 0,521.08" fill="none" stroke="#18191b" stroke-width="1"/><polyline id="SvgjsPolyline1012" points="61.79,598.17 28.14,552.17 1.05,508.98" fill="none" stroke="#18191b" stroke-width="1"/><polyline id="SvgjsPolyline1013" points="42.58,597.75 21.43,568.62 0.03,536.02" fill="none" stroke="#18191b" stroke-width="1"/><polyline id="SvgjsPolyline1014" points="71.4,598.28 51.34,572.07 32.29,545.13 16.05,519.91 1.03,493.95" fill="none" stroke="#18191b" stroke-width="1"/><polyline id="SvgjsPolyline1015" points="34.78,599.86 0.49,550.64" fill="none" stroke="#18191b" stroke-width="1"/><polyline id="SvgjsPolyline1016" points="81.02,598.31 57.16,567.46 36.4,538.05 18.72,510.19 1.22,478.73" fill="none" stroke="#18191b" stroke-width="1"/><polyline id="SvgjsPolyline1017" points="25.16,599.5 1.06,565.11" fill="none" stroke="#18191b" stroke-width="1"/><polyline id="SvgjsPolyline1018" points="90.63,598.26 61.15,560.39 37.18,525.91 16.93,492.58 0.38,460.62" fill="none" stroke="#18191b" stroke-width="1"/><polyline id="SvgjsPolyline1019" points="15.55,599.07 0.05,576.97" fill="none" stroke="#18191b" stroke-width="1"/><polyline id="SvgjsPolyline1020" points="100.24,598.15 66.88,555.7 39.63,516.2 18.31,480.02 0.03,442.22" fill="none" stroke="#18191b" stroke-width="1"/><polyline id="SvgjsPolyline1021" points="5.95,598.56 0.76,591.21" fill="none" stroke="#18191b" stroke-width="1"/><polyline id="SvgjsPolyline1022" points="109.86,597.96 74.35,553.38 43.67,508.96 29.79,485.8 18.46,464.65 0.23,423.53" fill="none" stroke="#18191b" stroke-width="1"/><polyline id="SvgjsPolyline1023" points="121.41,599.99 98.4,572.31 78.2,546.21 60.81,521.78 44.54,496.57 31.07,473.17 18.9,449.08 9.33,427.07 0.17,401.68" fill="none" stroke="#18191b" stroke-width="1"/><polyline id="SvgjsPolyline1024" points="131.02,599.65 104.02,567.48 81.99,539.01 63.01,512.02 45.49,484.06 31.11,457.74 18.5,430.52 7.94,402.45 0.44,376.52" fill="none" stroke="#18191b" stroke-width="1"/><polyline id="SvgjsPolyline1025" points="140.63,599.24 109.6,562.62 83.98,529.34 60.37,494.62 42.23,463.53 26.54,431.14 14.76,400.32 5.88,368.55 0.25,336.05" fill="none" stroke="#18191b" stroke-width="1"/><polyline id="SvgjsPolyline1026" points="150.23,598.76 113.25,555.39 84.22,517.18 59.57,479.54 39.63,442.6 24.5,406.67 13.37,369.31 7.16,333.87 5.22,297.95 7.66,262.05 14.33,226.7 25.92,189.48 41.42,153.71 60.14,119.51 84.86,81.92 115.84,41.42 150.98,0.42" fill="none" stroke="#18191b" stroke-width="1"/><polyline id="SvgjsPolyline1027" points="159.83,598.23 122.54,555.13 93.16,517.18 68.13,479.79 49.13,445.75 33.36,410.1 21.56,372.95 14.78,337.61 12.32,301.72 14.35,265.8 20.74,230.39 32.15,193.13 47.6,157.33 67.9,120.58 92.9,83.18 122.26,45.21 159.54,2.1" fill="none" stroke="#18191b" stroke-width="1"/><polyline id="SvgjsPolyline1028" points="0.22,261.09 6.14,228.64 15.27,196.95 27.27,166.22 43.16,133.92 61.46,102.93 83.45,70.73 107.16,39.77 140.07,0.81" fill="none" stroke="#18191b" stroke-width="1"/><polyline id="SvgjsPolyline1029" points="171.45,599.85 133.76,557.1 102.12,517.11 76.71,479.99 55.97,443.48 40.11,407.87 28.31,370.72 21.63,335.37 19.4,299.46 21.76,263.56 28.57,228.24 40.5,191.13 56.46,155.56 77.28,119.1 102.76,82.02 132.53,44.38 170.16,1.57" fill="none" stroke="#18191b" stroke-width="1"/><polyline id="SvgjsPolyline1030" points="0.3,220.96 7.98,195.08 17.53,169.84 28.75,145.28 44.43,116.25 60.25,90.77 80.85,61.25 104.72,30.41 129.82,0.56" fill="none" stroke="#18191b" stroke-width="1"/><polyline id="SvgjsPolyline1031" points="181.04,599.19 143.06,556.69 111.07,516.98 85.28,480.12 64.15,443.84 47.91,408.4 35.76,371.36 28.83,336.06 26.45,300.16 28.79,264.27 35.68,228.96 46.7,194.7 63.99,156.45 85.1,120.16 110.87,83.28 142.85,43.56 180.82,1.06" fill="none" stroke="#18191b" stroke-width="1"/><polyline id="SvgjsPolyline1032" points="0.87,192.68 9.25,170.2 20.24,145.54 31.24,124.21 44.81,100.87 59.47,78.2 76.84,53.74 118.05,2.21" fill="none" stroke="#18191b" stroke-width="1"/><polyline id="SvgjsPolyline1033" points="190.63,598.47 148.46,551.67 118.22,514.4 92.23,477.68 70.93,441.5 54.59,406.1 48.41,389.2 42.44,369.07 35.63,333.75 33.96,315.83 33.5,297.84 36.21,261.97 43.56,226.75 56.21,189.88 71.55,157.33 92.95,121.21 119.02,84.54 151.28,45.05 191.54,0.57" fill="none" stroke="#18191b" stroke-width="1"/><polyline id="SvgjsPolyline1034" points="0.04,173.04 18.55,132.04 42.39,90.4 73.04,45.96 108.53,1.36" fill="none" stroke="#18191b" stroke-width="1"/><polyline id="SvgjsPolyline1035" points="202.27,599.88 159.72,553.43 127.18,514.17 100.81,477.72 79.1,441.78 69.63,423.04 61.25,403.79 49.87,369.66 42.8,334.38 41.04,316.47 40.52,298.48 41.25,280.5 43.21,262.61 50.67,227.42 62.39,193.4 79.12,158.19 100.83,122.25 127.2,85.81 161.72,44.29 202.31,0.1" fill="none" stroke="#18191b" stroke-width="1"/><polyline id="SvgjsPolyline1036" points="0.08,153.4 18.67,115.75 41.85,77.19 69.45,37.94 99.25,0.31" fill="none" stroke="#18191b" stroke-width="1"/><polyline id="SvgjsPolyline1037" points="211.85,599.05 171.02,555.09 136.15,513.87 109.4,477.7 87.28,442.01 77.59,423.38 69,404.22 57.28,370.21 53.02,352.72 49.94,334.99 48.1,317.09 47.52,299.1 48.22,281.12 50.19,263.23 57.76,228.06 69.69,194.12 86.7,159.04 107.04,125.78 135.4,87.07 168.23,48.05 211.02,1.82" fill="none" stroke="#18191b" stroke-width="1"/><polyline id="SvgjsPolyline1038" points="0.9,133.78 17.76,101.98 36.62,71.33 60.67,36.9 88.32,1.4" fill="none" stroke="#18191b" stroke-width="1"/><polyline id="SvgjsPolyline1039" points="221.42,598.18 178.34,552.22 143.26,511.18 116.3,475.16 94.01,439.58 76.77,404.62 64.69,370.73 60.29,353.28 57.08,335.57 55.14,317.68 54.5,299.7 56.75,266.8 59.79,249.06 64.04,231.57 69.42,214.4 77,194.82 94.3,159.89 116.65,124.34 143.64,88.35 176.74,49.56 221.85,1.39" fill="none" stroke="#18191b" stroke-width="1"/><polyline id="SvgjsPolyline1040" points="1.01,116.91 15.62,90.71 34.85,60.29 55.61,30.88 79.48,0.04" fill="none" stroke="#18191b" stroke-width="1"/><polyline id="SvgjsPolyline1041" points="233.09,599.43 187.67,551.54 152.25,510.79 123.19,472.6 102.2,439.74 84.54,404.99 72.11,371.23 67.55,353.82 64.21,336.14 62.17,318.26 61.47,300.28 62.13,282.29 64.13,264.41 71.11,232.18 83.14,198.27 100.44,163.34 122.88,127.85 151.9,89.64 187.3,48.87 232.71,0.97" fill="none" stroke="#18191b" stroke-width="1"/><polyline id="SvgjsPolyline1042" points="0.11,102.72 13.66,79.37 29.87,54.12 48.88,27.15 68.91,0.93" fill="none" stroke="#18191b" stroke-width="1"/><polyline id="SvgjsPolyline1043" points="242.65,598.48 194.97,548.6 161.26,510.34 131.8,472.46 108.89,437.27 91.11,402.59 78.65,368.84 74.13,351.42 70.88,333.72 68.42,300.84 70.64,267.94 73.77,250.22 78.18,232.77 90.44,198.95 108.05,164.17 130.83,128.9 160.19,90.95 195.87,50.42 243.58,0.58" fill="none" stroke="#18191b" stroke-width="1"/><polyline id="SvgjsPolyline1044" points="1.03,85.89 26.69,45.33 58.54,1.74" fill="none" stroke="#18191b" stroke-width="1"/><polyline id="SvgjsPolyline1045" points="254.32,599.63 202.27,545.64 166.43,505.25 136.92,467.41 115.57,434.78 97.66,400.17 85.18,366.43 80.7,349 77.54,331.28 75.37,298.38 76.22,280.41 78.48,262.55 86.12,230.47 98.99,196.88 117.23,162.43 140.59,127.54 168.52,92.28 206.52,49.8 254.49,0.2" fill="none" stroke="#18191b" stroke-width="1"/><polyline id="SvgjsPolyline1046" points="0.76,71.68 23.62,36.45 50.15,0.11" fill="none" stroke="#18191b" stroke-width="1"/><polyline id="SvgjsPolyline1047" points="263.87,598.62 213.66,547.02 175.46,504.73 145.54,467.2 123.78,434.85 105.42,400.47 92.55,366.88 85.06,334.77 83.19,319.89 82.29,301.92 82.68,286.92 84.49,269.02 87.72,251.32 92.31,233.92 98.13,216.89 105.08,200.28 123.35,165.86 146.83,131.05 174.92,95.91 213.09,53.58 263.29,1.97" fill="none" stroke="#18191b" stroke-width="1"/><polyline id="SvgjsPolyline1048" points="0.74,57.47 18.95,29.95 40.06,0.8" fill="none" stroke="#18191b" stroke-width="1"/><polyline id="SvgjsPolyline1049" points="275.54,599.72 218.9,541.82 184.52,504.15 154.21,466.95 130.45,432.33 111.94,398.03 104.92,381.46 99.04,364.45 91.67,332.31 89.69,314.43 89.2,299.44 90.01,281.46 91.84,266.58 99.37,234.48 105.32,217.5 112.42,200.95 131.04,166.72 153.08,134.55 183.29,97.27 219.67,57.37 274.22,1.62" fill="none" stroke="#18191b" stroke-width="1"/><polyline id="SvgjsPolyline1050" points="0.94,43.27 30.11,1.45" fill="none" stroke="#18191b" stroke-width="1"/><polyline id="SvgjsPolyline1051" points="285.09,598.67 230.35,543.11 191.64,501.28 161.09,464.27 138.72,432.34 119.74,398.29 112.49,381.82 106.42,364.88 101.64,347.53 98.74,332.82 96.89,317.93 96.1,299.96 96.89,281.98 98.75,267.1 102.36,249.47 106.44,235.04 112.53,218.1 119.77,201.63 138.76,167.59 162.97,133.29 193.68,96.41 230.41,56.83 285.16,1.27" fill="none" stroke="#18191b" stroke-width="1"/><polyline id="SvgjsPolyline1052" points="1.35,29.08 20.29,2.05" fill="none" stroke="#18191b" stroke-width="1"/><polyline id="SvgjsPolyline1053" points="296.76,599.74 239.76,542.19 200.77,500.62 169.83,463.93 147.03,432.3 127.57,398.53 120.1,382.16 113.81,365.3 108.84,348 105.81,333.31 103.6,315.46 103,300.47 103.77,282.49 105.66,267.62 108.62,252.92 113.52,235.6 119.74,218.72 127.15,202.31 144.89,171.01 167.41,139.18 198.14,102.33 234.94,62.8 296.1,0.93" fill="none" stroke="#18191b" stroke-width="1"/><polyline id="SvgjsPolyline1054" points="0.23,17.38 12.32,0.21" fill="none" stroke="#18191b" stroke-width="1"/><polyline id="SvgjsPolyline1055" points="306.31,598.67 245.01,536.94 205.92,495.46 176.76,461.2 153.74,429.73 135.45,398.74 127.75,382.47 121.24,365.7 116.07,348.46 112.9,333.81 110.56,315.96 109.89,300.98 110.65,283.01 112.56,268.13 115.59,253.44 120.6,236.16 126.98,219.33 134.56,203.01 152.66,171.91 177.4,137.99 206.61,103.77 245.73,62.32 307.04,0.59" fill="none" stroke="#18191b" stroke-width="1"/><polyline id="SvgjsPolyline1056" points="0.96,3.21 2.69,0.76" fill="none" stroke="#18191b" stroke-width="1"/><polyline id="SvgjsPolyline1057" points="317.97,599.74 248.17,529.53 211.08,490.3 181.83,456.11 158.8,424.65 147.76,406.79 139.29,390.91 126.75,360.42 121.86,343.1 118.99,328.38 117.29,313.48 116.8,298.49 117.53,283.51 119.47,268.64 122.57,253.97 127.71,236.73 140.64,206.39 149.27,190.6 160.48,172.85 183.72,141.54 213.11,107.47 248.18,70.45 317.99,0.25" fill="none" stroke="#18191b" stroke-width="1"/><polyline id="SvgjsPolyline1058" points="327.52,598.69 255.54,526.42 220.31,489.55 190.69,455.67 167.22,424.54 155.9,406.86 147.17,391.12 134.18,360.82 129.08,343.56 126.06,328.87 124.25,313.99 123.7,299 124.42,284.02 126.4,269.16 129.57,254.5 134.84,237.3 148.09,207.1 166.66,176.28 190.06,145.1 221.66,108.98 256.94,72.16 326.81,2.02" fill="none" stroke="#18191b" stroke-width="1"/><polyline id="SvgjsPolyline1059" points="339.18,599.78 262.94,523.28 225.51,484.36 195.81,450.57 174,421.93 155.13,391.3 141.67,361.2 137.11,346.92 133.16,329.36 131.24,314.49 130.62,299.51 131.32,284.53 133.33,269.67 136.59,255.03 142,237.87 155.6,207.83 174.57,177.26 196.43,148.67 226.18,114.92 263.63,76.02 337.75,1.65" fill="none" stroke="#18191b" stroke-width="1"/><polyline id="SvgjsPolyline1060" points="348.72,598.77 230.76,479.16 200.95,445.46 180.83,419.31 161.74,388.81 155.02,375.4 148.18,358.76 143.64,344.47 140.3,329.85 138.25,314.99 137.56,300.02 138.25,285.04 140.3,270.18 143.64,255.56 148.17,241.27 153.77,227.36 161.73,211.22 180.81,180.72 202.85,152.26 232.78,118.67 348.7,1.25" fill="none" stroke="#18191b" stroke-width="1"/><polyline id="SvgjsPolyline1061" points="360.37,599.92 238.09,476.13 209.98,444.93 187.71,416.66 168.39,386.31 160.35,370.21 154.71,356.31 150.2,342.02 146.93,327.38 144.52,300.52 145.2,285.54 147.29,270.69 150.72,256.1 155.39,241.85 161.16,228 169.33,211.97 187.1,184.18 209.31,155.86 235.32,126.81 359.64,0.82" fill="none" stroke="#18191b" stroke-width="1"/><polyline id="SvgjsPolyline1062" points="369.91,598.96 241.37,468.72 215.22,439.79 194.65,413.99 176.55,386.42 168.22,370.47 162.34,356.68 157.59,342.45 154.14,327.86 151.53,301.02 152.18,286.04 153.78,274.15 157.05,259.52 161.62,245.24 174.09,217.98 193.44,187.65 215.84,159.48 244.09,128.41 370.58,0.35" fill="none" stroke="#18191b" stroke-width="1"/><polyline id="SvgjsPolyline1063" points="379.46,598.04 248.83,465.64 222.47,436.9 201.66,411.3 183.32,383.89 170.05,357.01 165.07,342.87 161.41,328.33 159.53,316.48 158.58,301.51 159.21,286.53 160.85,274.65 164.22,260.04 168.95,245.81 181.81,218.74 199.85,191.13 220.49,165.39 246.74,136.56 379.44,1.98" fill="none" stroke="#18191b" stroke-width="1"/><polyline id="SvgjsPolyline1064" points="391.09,599.32 250.15,456.02 225.86,429.45 206.94,406.18 188.63,378.75 175.63,351.75 168.15,325.84 166.12,310.98 165.67,299 166.62,284.03 168.55,272.19 176.36,246.38 189.65,219.52 208.15,192.22 227.18,169.03 253.61,140.36 390.4,1.39" fill="none" stroke="#18191b" stroke-width="1"/><polyline id="SvgjsPolyline1065" points="400.64,598.49 346.48,542.35 253.62,448.54 231.3,424.24 214.12,403.42 195.53,376.18 188.4,362.99 182.37,349.26 177.66,335.02 174.98,323.33 172.84,299.46 175.18,275.61 177.95,263.94 182.76,249.74 188.88,236.04 196.08,222.89 214.78,195.72 232.01,174.94 254.37,150.68 351.44,52.59 401.38,0.73" fill="none" stroke="#18191b" stroke-width="1"/><polyline id="SvgjsPolyline1066" points="412.25,599.89 356.31,541.3 257.18,441.03 236.83,419 219.57,398.24 202.52,373.58 190.3,349.53 185.31,335.39 182.43,323.75 180.08,299.9 182.47,276.06 185.36,264.41 190.38,250.28 202.62,226.25 219.69,201.6 234.98,183.1 257.32,158.82 354.36,60.7 410.33,2.15" fill="none" stroke="#18191b" stroke-width="1"/><polyline id="SvgjsPolyline1067" points="421.8,599.16 357.85,531.64 260.85,433.48 240.48,411.46 225.12,393.02 208.07,368.36 196.1,344.2 189.43,321.18 187.44,300.3 188.04,288.32 189.89,276.47 196.99,253.58 207.76,232.16 224.75,207.45 256.29,171.3 359.51,66.64 421.39,1.29" fill="none" stroke="#18191b" stroke-width="1"/><polyline id="SvgjsPolyline1068" points="431.36,598.48 359.49,521.94 260.49,421.54 232.65,390.11 215.28,365.68 204.25,344.38 197.1,321.52 194.9,300.67 196.84,279.79 203.74,256.85 214.59,235.46 231.82,210.93 261.64,177.25 362.73,74.7 432.49,0.29" fill="none" stroke="#18191b" stroke-width="1"/><polyline id="SvgjsPolyline1069" points="440.93,597.86 375.75,527.38 264.41,413.88 238.46,384.77 222.64,362.92 211.41,341.74 204.93,321.79 202.5,300.97 204.52,280.11 210.66,260.06 221.61,238.73 237.25,216.74 263.07,187.53 359.9,89.21 441.63,1.35" fill="none" stroke="#18191b" stroke-width="1"/><polyline id="SvgjsPolyline1070" points="452.49,599.54 377.59,517.62 270.57,408.29 244.44,379.36 230.17,360.07 218.71,339.01 212.27,319.06 210.25,301.21 211.8,283.3 217.78,263.21 227.29,244.51 242.92,222.52 268.9,193.45 375.94,84.13 452.87,0.01" fill="none" stroke="#18191b" stroke-width="1"/><polyline id="SvgjsPolyline1071" points="462.05,599.05 373.45,501.22 272.79,398.26 248.71,371.5 234.67,352.06 225.04,333.43 219.83,316.23 218.23,298.33 220.54,280.52 226.35,263.51 236.46,245.13 248.92,228.24 273.02,201.5 373.68,98.54 462.27,0.69" fill="none" stroke="#18191b" stroke-width="1"/><polyline id="SvgjsPolyline1072" points="471.62,598.63 422.1,542.3 373.62,489.08 334.31,447.8 273.15,385.93 255.11,365.85 240.99,346.46 232.74,330.49 227.62,313.27 226.44,298.34 228.28,283.48 234.06,266.46 242.78,250.73 255.32,233.9 275.45,211.67 336.63,149.81 375.88,108.49 418.32,61.93 471.83,1.12" fill="none" stroke="#18191b" stroke-width="1"/><polyline id="SvgjsPolyline1073" points="481.19,598.28 426.18,534.8 376.04,479.02 334.87,435.37 275.87,375.59 259.87,357.71 249.18,343.23 241.9,330.14 236.91,316.01 234.95,301.18 236.38,286.28 240.95,272.01 247.92,258.75 260.28,241.79 276.32,223.94 333.24,166.31 374.45,122.71 426.61,64.71 481.61,1.23" fill="none" stroke="#18191b" stroke-width="1"/><polyline id="SvgjsPolyline1074" points="490.76,597.99 428.42,524.99 378.7,468.84 337.84,424.9 283.1,369.34 266.88,351.65 257.75,339.76 250.21,326.81 245.26,312.68 243.84,300.79 244.93,288.86 249.55,274.62 256.87,261.55 265.87,249.56 282,231.8 336.75,176.24 375.62,134.55 429.35,73.94 491.67,0.92" fill="none" stroke="#18191b" stroke-width="1"/><polyline id="SvgjsPolyline1075" points="500.33,597.77 434.74,519.66 375.63,451.79 339.13,412 272.42,342.99 263.43,331 257.71,320.46 254.11,309.04 253.24,300.09 254.08,291.15 257.63,279.71 263.33,269.16 272.3,257.15 336.94,190.31 375.51,148.35 432.67,82.76 502.12,0.06" fill="none" stroke="#18191b" stroke-width="1"/><polyline id="SvgjsPolyline1076" points="511.8,599.95 435.4,507.42 373.03,434.44 332.76,389.97 278.57,333.88 271.37,324.29 267.04,316.41 264.22,307.88 263.39,298.94 264.05,292.98 266.69,284.4 270.89,276.45 278.01,266.79 332.16,210.67 372.45,166.22 432.91,95.55 511.24,0.72" fill="none" stroke="#18191b" stroke-width="1"/><polyline id="SvgjsPolyline1077" points="521.37,599.88 434.45,492.7 371.05,416.66 329.39,369.4 283.81,321.7 277.37,311.61 275.41,305.95 274.71,300 275.41,294.05 277.37,288.39 283.81,278.3 329.39,230.6 371.05,183.34 428.74,114.26 521.37,0.12" fill="none" stroke="#18191b" stroke-width="1"/><polyline id="SvgjsPolyline1078" points="530.94,599.88 358.51,384.38 321.75,340.82 292.99,310.23 289.72,305.21 288.56,299.39 289.09,296.44 291.89,291.17 322.56,258.26 359.29,214.67 529.84,1.51" fill="none" stroke="#18191b" stroke-width="1"/><polyline id="SvgjsPolyline1079" points="526.08,599.04 432.2,482.05 365.55,400.91 326.24,355.6 288.9,316.6 283.88,309.15 281.62,300.51 283.45,291.78 288.25,284.19 325.46,245.07 368.6,195.13 435.17,113.93 525.3,1.62" fill="none" stroke="#18191b" stroke-width="1"/><polyline id="SvgjsPolyline1080" points="540.51,599.96 422.74,448.32 357.48,362.27 340.03,337.87 328.67,320.21 323.39,309.45 321.49,300.69 322.93,291.85 327.99,280.99 337.56,265.75 354.89,241.27 420.07,155.15 539.66,1.13" fill="none" stroke="#18191b" stroke-width="1"/><polyline id="SvgjsPolyline1081" points="535.63,599.66 315.06,318.95 301,299.77 534.11,2.28" fill="none" stroke="#18191b" stroke-width="1"/><polyline id="SvgjsPolyline1082" points="548.25,597.72 446.66,463.92 385.27,378.75 367.35,351.04 355.84,329.99 350.32,316.06 347.77,301.32 349.6,286.49 354.73,272.41 365.99,251.23 382.11,225.93 439.71,145.42 548.46,2" fill="none" stroke="#18191b" stroke-width="1"/><polyline id="SvgjsPolyline1083" points="543.48,597.85 428.46,447.88 371.67,370.48 353.38,343.02 342.94,324.81 337.33,310.92 335.75,299.07 337.87,287.3 343.78,273.54 355.98,252.88 372.81,228.05 433.33,145.94 544.74,0.77" fill="none" stroke="#18191b" stroke-width="1"/><polyline id="SvgjsPolyline1084" points="536.84,598.69 339.83,345.27 317.57,313.27 315.09,307.82 313.6,298.99 315.09,293.21 320.87,282.71 347.11,246.16 536.66,2.14" fill="none" stroke="#18191b" stroke-width="1"/><polyline id="SvgjsPolyline1085" points="557.81,597.94 461.24,467.88 426.67,418.84 403.54,383.79 386.8,355.35 376.47,333.71 370.97,316.59 369.04,298.73 371.56,280.95 377.43,263.96 388,242.42 406.5,211.54 431.5,174.13 462.72,130.07 559.34,0.04" fill="none" stroke="#18191b" stroke-width="1"/><polyline id="SvgjsPolyline1086" points="553.16,598.45 450.53,461.67 415.61,412.88 393.81,380.54 378.2,354.93 366.02,330.85 360.37,313.79 358.81,298.9 360.88,284.08 366.89,267.14 377.85,245.8 395.19,217.73 418.82,183.01 452.08,136.72 552.91,2.35" fill="none" stroke="#18191b" stroke-width="1"/><polyline id="SvgjsPolyline1087" points="567.38,598.23 477.39,474.5 446.91,429.92 424.35,394.5 408.09,365.79 396.77,341.29 390.46,321.28 387.95,300.48 389.64,282.58 396.43,259.6 407.65,235.05 423.86,206.32 449.7,165.87 480.29,121.37 568.6,0.13" fill="none" stroke="#18191b" stroke-width="1"/><polyline id="SvgjsPolyline1088" points="562.83,599.11 468.67,471 436.2,424.15 415.03,391.4 398.55,362.81 387.12,338.36 380.76,318.38 378.67,300.53 380.53,282.66 386.73,262.62 398.22,238.21 414.78,209.67 441.01,169.47 471.91,125.19 562.56,1.94" fill="none" stroke="#18191b" stroke-width="1"/><polyline id="SvgjsPolyline1089" points="576.94,598.59 493.33,481.36 463.44,436.38 440,397.98 424.49,368.86 413.9,344.04 407.42,320.95 405.38,300.08 407.39,279.21 413.84,256.12 424.42,231.29 439.92,202.17 461.74,166.28 491.54,121.26 531.09,64.71 576.84,1.54" fill="none" stroke="#18191b" stroke-width="1"/><polyline id="SvgjsPolyline1090" points="572.5,599.87 486.52,480.65 454.65,433.39 432.47,397.73 416.64,368.78 405.84,344.05 398.96,321.08 396.72,300.24 398.86,279.39 404.67,259.22 415.4,234.47 432.68,202.89 454.9,167.25 486.77,120 572.72,0.75" fill="none" stroke="#18191b" stroke-width="1"/><polyline id="SvgjsPolyline1091" points="586.49,599.03 541.28,535.47 507.4,485.95 476.53,438.04 455.33,401.79 439.18,369.62 429.37,344.48 423.55,321.22 421.72,300.32 423.96,276.46 430.12,253.29 440.15,228.23 456.46,196.15 476.19,162.51 505.38,117.08 540.91,65.06 586.12,1.5" fill="none" stroke="#18191b" stroke-width="1"/><polyline id="SvgjsPolyline1092" points="580.44,598.21 533.22,532.4 497.43,480.55 471.17,440.37 448.05,401.77 432.88,372.48 422.62,347.51 415.62,321.46 413.63,300.58 415.42,279.69 421.44,256.48 431.54,231.45 448.06,199.47 469.59,163.42 497.44,120.7 533.2,68.83 582.15,0.57" fill="none" stroke="#18191b" stroke-width="1"/><polyline id="SvgjsPolyline1093" points="596.04,599.53 554.76,540.54 518.06,485.69 491.03,442.45 470.35,405.89 455.92,376.23 445.24,348.21 439.47,324.93 437.24,301.06 439.11,277.16 444.62,253.82 455.07,225.72 470.76,193.33 489.94,159.37 518.54,113.57 553.56,61.21 594.82,2.2" fill="none" stroke="#18191b" stroke-width="1"/><polyline id="SvgjsPolyline1094" points="590.2,599.32 545.23,535.59 509.98,483.38 482.72,440.28 461.86,403.83 446.15,371.45 436.8,346.14 430.97,319.8 429.48,298.88 431.84,275.02 437.9,251.82 448.95,223.94 463.74,194.45 486.32,155.54 513.75,112.54 549.1,60.39 590.61,1.57" fill="none" stroke="#18191b" stroke-width="1"/><polyline id="SvgjsPolyline1095" points="598.69,590.3 559.74,533.34 527.06,483.02 502.28,441.92 483.69,407.64 469.81,377.71 459.67,349.49 453.74,323.17 452,299.26 453.97,275.36 459.24,251.97 469.23,223.69 483,193.71 501.52,159.4 527.85,115.72 558.9,67.92 599.54,8.49" fill="none" stroke="#18191b" stroke-width="1"/><polyline id="SvgjsPolyline1096" points="599.71,578.63 566.41,528.72 537.55,483.08 514.81,444.26 496.69,409.72 483.27,379.59 473.53,351.22 467.81,324.86 465.97,300.95 467.54,277.02 473.02,250.6 481.49,224.98 494.57,194.69 512.44,160.03 535.01,121.1 563.75,75.38 598.65,22.94" fill="none" stroke="#18191b" stroke-width="1"/><polyline id="SvgjsPolyline1097" points="599.19,564.5 568.24,516.63 543.3,475.62 522.81,438.97 505.58,403.99 493.17,373.42 485.32,347.6 480.81,324.04 479.21,300.11 480.78,276.18 485.27,252.61 493.1,226.78 505.49,196.21 522.71,161.22 541.68,127.15 568.13,83.55 599.07,35.68" fill="none" stroke="#18191b" stroke-width="1"/><polyline id="SvgjsPolyline1098" points="598.85,550.37 570.26,504.56 549.12,468.27 529.45,431.17 515.6,401.22 504.88,373.21 497.45,347.26 493.24,323.64 491.8,299.7 493.32,275.77 497.59,252.16 505.08,226.23 515.84,198.23 529.72,168.3 547.94,133.83 570.57,94.93 599.17,49.13" fill="none" stroke="#18191b" stroke-width="1"/><polyline id="SvgjsPolyline1099" points="598.73,536.23 573.99,495.1 554.98,461.05 538.73,428.93 525.44,398.73 516.24,373.35 509.15,347.31 505.16,323.66 503.79,299.71 505.23,275.76 509.27,252.12 516.42,226.09 525.66,200.73 538.98,170.54 553.85,141.08 574.29,104.39 599.04,63.27" fill="none" stroke="#18191b" stroke-width="1"/><polyline id="SvgjsPolyline1100" points="598.83,522.1 576.38,483.11 560.9,453.96 546.62,424.22 535.09,396.53 526.38,370.98 520.42,347.74 516.59,324.05 515.25,300.1 516.56,276.15 519.78,255.41 525.48,232.1 533.96,206.47 546.53,175.97 560.81,146.22 577.74,114.45 598.73,78.07" fill="none" stroke="#18191b" stroke-width="1"/><polyline id="SvgjsPolyline1101" points="599.19,507.98 580.4,473.81 565.57,444.33 553.27,416.97 543.53,391.8 536.27,368.93 530.71,345.59 527.56,324.83 526.21,300.88 527.1,279.9 530.38,256.14 535.8,232.77 543.94,207.03 553.75,181.88 566.11,154.54 580.98,125.09 599.81,90.94" fill="none" stroke="#18191b" stroke-width="1"/><polyline id="SvgjsPolyline1102" points="599.84,493.88 571.63,437.56 559.98,409.92 551.86,387.34 545.14,364.3 540.18,340.83 537.55,320 536.71,299.02 537.72,278.05 540.51,257.24 544.89,236.71 551.54,213.66 559.6,191.05 569.98,166.13 582.75,138.99 599.34,107.04" fill="none" stroke="#18191b" stroke-width="1"/><polyline id="SvgjsPolyline1103" points="599.41,477.16 575.38,425.49 566.69,403.12 559.19,380.33 553.84,360.02 549.85,339.41 547.43,318.56 546.74,300.57 547.35,282.59 549.67,261.72 553.58,241.09 558.87,220.77 565.3,200.79 574.94,175.57 598.89,123.86" fill="none" stroke="#18191b" stroke-width="1"/><polyline id="SvgjsPolyline1104" points="599.46,460.45 580.49,416.36 566.5,373.62 561.73,353.17 558.75,335.42 556.92,317.52 556.33,299.53 556.99,281.55 558.88,263.65 561.91,245.91 566.74,225.48 579.76,185.56 599.86,138.7" fill="none" stroke="#18191b" stroke-width="1"/><polyline id="SvgjsPolyline1105" points="599.99,443.81 584.73,404.69 573.74,367.29 567.37,331.88 565.47,298.95 567.62,266.04 574.23,230.67 584.44,196.16 599.65,157.03" fill="none" stroke="#18191b" stroke-width="1"/><polyline id="SvgjsPolyline1106" points="598.98,421.65 588.38,390.41 580.29,358.43 575.71,328.79 574.21,298.84 575.96,268.91 580.76,239.31 589.05,207.38 599.8,176.18" fill="none" stroke="#18191b" stroke-width="1"/><polyline id="SvgjsPolyline1107" points="600,402.37 592.53,376.43 586.91,350.03 583.5,323.26 582.54,299.28 583.62,275.31 586.64,251.51 592.15,225.08 599.54,199.12" fill="none" stroke="#18191b" stroke-width="1"/><polyline id="SvgjsPolyline1108" points="599.8,374.59 592.76,336.26 590.52,300.35 592.68,264.43 599.64,226.08" fill="none" stroke="#18191b" stroke-width="1"/><polyline id="SvgjsPolyline1109" points="599.87,332.43 598.11,299.5 599.98,266.57" fill="none" stroke="#18191b" stroke-width="1"/></g></svg>